<svg id="Capa_1" data-name="Capa 1" xmlns="http://www.w3.org/2000/svg" viewBox="0 0 204.08 164.77"><defs><style>.cls-1{fill:#fff;}</style></defs><path class="cls-1" d="M274.89,61.48c5.64-6.4,9.65-11.47,14.18-16,15.15-15.14,34.79-15.13,49.94-.17q13.19,13,26.29,26.15c15.56,15.62,15.61,34.9.13,50.45q-32.7,32.85-65.47,65.61c-14.88,14.87-34.37,15.25-49.36.49q-33.85-33.31-67.14-67.22c-14-14.21-14-33.3-.3-47.61,9.26-9.66,18.88-19,28.44-28.37,14.12-13.84,33.22-14.3,47.69-.8C264.52,48.88,268.88,54.68,274.89,61.48ZM258.05,76.14c-5-4.38-9.81-8.54-14.52-12.87-5.75-5.28-9.73-5.55-15.26-.22-8,7.68-15.75,15.59-23.59,23.42-8.86,8.85-8.94,11.71-.26,20.39q31.17,31.15,62.41,62.22c6.22,6.18,9.84,6.36,16.29,0q32.44-32,64.61-64.37c5.57-5.59,5.43-10.06-.31-16-7-7.21-14.22-14.2-21.32-21.32-11.18-11.21-12.76-11.17-24.1.35-12.46,12.64-25,25.22-37.51,37.9l-17.86-17.2Z" transform="translate(-172.92 -34.11)"/></svg>